<?xml version="1.0" standalone="no"?>
<!DOCTYPE svg PUBLIC "-//W3C//DTD SVG 20010904//EN"
 "http://www.w3.org/TR/2001/REC-SVG-20010904/DTD/svg10.dtd">
<svg version="1.0" xmlns="http://www.w3.org/2000/svg"
 width="620.000000pt" height="620.000000pt" viewBox="0 0 620.000000 620.000000"
 preserveAspectRatio="xMidYMid meet">
<metadata>
Created by potrace 1.14, written by Peter Selinger 2001-2017
</metadata>
<g transform="translate(0.000000,620.000000) scale(0.100000,-0.100000)"
fill="#000000" stroke="none">
<path d="M2918 6087 c-84 -57 -211 -144 -282 -193 -70 -49 -138 -96 -150 -104
-223 -153 -536 -363 -746 -499 l-265 -171 -60 -85 c-101 -144 -134 -189 -148
-205 -7 -8 -68 -91 -135 -185 -231 -323 -374 -520 -396 -545 -13 -14 -37 -48
-54 -77 -46 -76 -45 -135 1 -233 69 -148 97 -212 97 -224 0 -6 4 -16 9 -21 5
-6 23 -44 41 -85 18 -41 45 -103 61 -137 16 -34 29 -66 29 -72 0 -5 13 -33 28
-62 15 -30 61 -130 101 -224 40 -93 88 -202 107 -242 19 -40 34 -76 34 -80 0
-4 11 -30 24 -58 24 -48 43 -91 81 -180 16 -38 26 -59 74 -165 43 -96 97 -219
113 -260 6 -14 15 -34 20 -44 6 -11 25 -56 43 -100 18 -45 44 -106 58 -136 14
-30 37 -81 51 -112 14 -31 26 -61 26 -66 0 -5 13 -36 29 -68 16 -32 42 -86 56
-119 15 -33 47 -101 71 -151 24 -50 44 -94 44 -97 0 -6 66 -154 80 -179 6 -10
10 -23 10 -28 0 -29 58 -88 171 -175 68 -52 236 -182 373 -288 572 -441 524
-407 581 -407 22 0 54 9 71 19 23 14 695 512 759 563 64 50 108 83 187 140 58
42 99 79 110 100 18 36 48 103 71 158 14 35 65 151 119 270 16 36 38 81 48
100 10 19 21 46 25 60 4 14 15 43 25 65 10 22 35 81 56 130 20 50 41 97 45
105 4 8 22 49 39 90 18 41 39 89 46 105 7 17 25 59 40 95 30 73 53 127 95 217
16 34 29 65 29 68 0 4 13 35 28 69 64 137 82 177 82 182 0 3 12 31 26 62 14
31 29 66 34 77 4 11 17 40 28 65 11 25 30 68 42 95 11 28 25 59 30 70 5 11 24
56 43 100 19 44 46 105 60 135 13 30 39 89 57 130 18 41 43 99 56 128 13 29
35 79 49 112 31 73 66 152 112 250 51 109 45 204 -17 259 -9 9 -77 97 -151
196 -74 99 -137 185 -142 190 -41 52 -237 319 -354 480 -154 214 -142 202
-435 413 -59 42 -160 113 -223 157 -64 44 -180 126 -258 182 -78 56 -167 119
-197 140 -30 21 -163 114 -295 208 -132 94 -253 176 -268 183 -63 27 -88 18
-249 -91z"/>
</g>
</svg>
